#!OML:ASF I:\golf\golf\golf 2\Subject 1\2002-09-07\Subject1.ASF
:FULLY-SPECIFIED
:DEGREES
289
root -1.27292 17.8896 -2.73914 64.9706 26.65 18.9287
lowerback 24.542 1.5683 5.71821
upperback 12.0977 4.02106 11.155
thorax -0.644991 1.96546 8.02688
lowerneck -16.6494 -8.64664 -1.25017
upperneck 12.1566 -10.1557 -8.06997
head 6.03535 -5.62152 -3.35857
rclavicle -3.81667e-014 -4.13472e-014
rhumerus 42.6802 6.93405 -35.4034
rradius 29.2674
rwrist -13.4776
rhand -27.6844 11.6498
rfingers 7.12502
rthumb -1.08115 -18.3272
lclavicle -3.81667e-014 -4.13472e-014
lhumerus -17.0937 -28.188 96.3689
lradius 79.82
lwrist 12.9686
lhand -13.2703 30.1359
lfingers 7.12502
lthumb 12.8327 59.7214
rfemur -78.335 -9.10388 6.33778
rtibia 32.2429
rfoot -4.28251 -18.8339
rtoes 27.3341
lfemur -43.1707 -2.59692 -13.1816
ltibia 25.1319
lfoot 11.5135 -7.88708
ltoes -12.2453
290
root -1.29464 17.868 -2.68274 65.0535 26.3859 18.8173
lowerback 25.1247 1.79182 5.57061
upperback 12.3523 4.31537 11.2607
thorax -0.688323 2.09456 8.15513
lowerneck -16.6473 -8.70439 -0.947884
upperneck 11.5138 -10.3263 -8.30068
head 5.79358 -5.70762 -3.46219
rclavicle -1.27222e-014 1.03368e-014
rhumerus 43.4361 6.48566 -34.2766
rradius 29.5133
rwrist -12.7737
rhand -28.5461 11.9758
rfingers 7.12502
rthumb -1.91335 -17.9954
lclavicle -1.27222e-014 1.03368e-014
lhumerus -16.9566 -28.4029 96.4612
lradius 80.0641
lwrist 13.033
lhand -13.2981 29.8182
lfingers 7.12502
lthumb 12.8059 59.4054
rfemur -78.8254 -8.85502 6.32079
rtibia 32.9427
rfoot -2.63535 -18.0174
rtoes 16.1533
lfemur -42.3116 -2.38966 -13.0754
ltibia 25.0448
lfoot 11.3721 -7.43676
ltoes -12.553
291
root -1.32631 17.8543 -2.60703 64.2041 25.8299 17.9352
lowerback 26.5581 2.3444 5.12162
upperback 12.7825 5.01817 11.3946
thorax -1.01094 2.40049 8.35866
lowerneck -16.685 -8.73966 -0.771116
upperneck 10.8551 -10.4517 -8.43584
head 5.56795 -5.77067 -3.5148
rclavicle -3.18055e-015 -3.97569e-015
rhumerus 44.1864 6.11286 -33.0757
rradius 29.7234
rwrist -11.8223
rhand -29.6671 11.8915
rfingers 7.12502
rthumb -2.99599 -18.0672
lclavicle -3.18055e-015 -3.97569e-015
lhumerus -16.811 -28.6767 96.543
lradius 80.3367
lwrist 13.1823
lhand -13.1761 29.9369
lfingers 7.12502
lthumb 12.9235 59.5168
rfemur -78.9046 -7.79696 6.59257
rtibia 33.6671
rfoot -3.00731 -17.6767
rtoes 16.313
lfemur -40.5526 -1.35566 -13.0178
ltibia 24.8803
lfoot 11.1058 -7.11353
ltoes -13.1706
292
root -1.33231 17.831 -2.56368 64.3819 25.8881 18.2466
lowerback 27.263 2.28972 5.56179
upperback 12.9572 5.11959 11.5085
thorax -1.12389 2.45742 8.19811
lowerneck -16.7901 -8.85099 -0.832038
upperneck 10.3072 -10.6456 -8.33483
head 5.41148 -5.8602 -3.47345
rclavicle -4.77083e-014 -9.46215e-014
rhumerus 44.8194 5.68314 -31.6313
rradius 29.9206
rwrist -10.8684
rhand -30.7065 11.859
rfingers 7.12502
rthumb -3.99973 -18.0832
lclavicle -4.77083e-014 -9.46215e-014
lhumerus -16.6917 -29.1691 96.7127
lradius 80.7694
lwrist 13.292
lhand -13.1198 30.3241
lfingers 7.12502
lthumb 12.9777 59.9004
rfemur -79.198 -8.02783 6.58554
rtibia 34.4345
rfoot -3.26752 -17.5833
rtoes 15.2724
lfemur -39.734 -1.49032 -13.0196
ltibia 24.7702
lfoot 11.0661 -6.96391
ltoes -14.4923
293
root -1.34041 17.807 -2.51952 64.5795 25.8488 18.5891
lowerback 27.9314 2.27539 5.80583
upperback 13.0926 5.23209 11.6215
thorax -1.27957 2.51294 8.14545
lowerneck -16.7412 -8.9525 -0.837946
upperneck 9.81197 -10.8382 -8.23483
head 5.24415 -5.94423 -3.43374
rclavicle 7.63333e-014 6.04305e-014
rhumerus 45.3982 5.20977 -30.333
rradius 30.0315
rwrist -9.75866
rhand -31.3954 12.335
rfingers 7.12502
rthumb -4.6649 -17.5936
lclavicle 7.63333e-014 6.04305e-014
lhumerus -16.5878 -29.5118 96.9636
lradius 80.7432
lwrist 13.2651
lhand -13.2088 29.8826
lfingers 7.12502
lthumb 12.8919 59.4644
rfemur -79.4936 -8.24366 6.50383
rtibia 35.1824
rfoot -3.55721 -17.5373
rtoes 14.528
lfemur -39.2135 -1.64894 -13.0806
ltibia 25.2741
lfoot 10.839 -6.60659
ltoes -14.5585
294
root -1.35726 17.7688 -2.48184 65.2322 25.5736 18.7773
lowerback 27.8844 2.43456 5.63895
upperback 13.1587 5.37811 11.6822
thorax -1.21993 2.57367 8.27213
lowerneck -16.3969 -9.00567 -0.723938
upperneck 9.12483 -11.0083 -8.18353
head 4.96142 -6.0101 -3.39956
rclavicle -1.90833e-014 -7.07673e-014
rhumerus 46.0076 4.83411 -29.1311
rradius 30.0791
rwrist -8.67029
rhand -32.4112 12.7578
rfingers 7.12502
rthumb -5.64579 -17.1469
lclavicle -1.90833e-014 -7.07673e-014
lhumerus -16.6987 -29.7568 97.1436
lradius 81.1025
lwrist 13.3452
lhand -13.1748 29.6273
lfingers 7.12502
lthumb 12.9247 59.207
rfemur -80.5238 -8.33391 6.32337
rtibia 36.0185
rfoot -3.79626 -17.5643
rtoes 15.0299
lfemur -39.5692 -1.57367 -13.2112
ltibia 26.4216
lfoot 10.4079 -5.90197
ltoes -13.6471
295
root -1.41213 17.6621 -2.50961 69.3044 25.6111 18.8954
lowerback 23.3046 2.78314 5.14743
upperback 12.7591 5.22522 11.7769
thorax 0.470971 2.49141 8.83217
lowerneck -15.9883 -8.99349 -0.806287
upperneck 8.21547 -11.0822 -7.943
head 4.62656 -6.02043 -3.25984
rclavicle 6.99722e-014 5.08889e-014
rhumerus 46.9881 4.39657 -28.5485
rradius 29.8681
rwrist -7.19315
rhand -33.6494 13.0292
rfingers 7.12502
rthumb -6.84114 -16.8403
lclavicle 6.99722e-014 5.08889e-014
lhumerus -16.654 -29.7027 97.0844
lradius 81.4389
lwrist 13.3791
lhand -13.0428 29.8599
lfingers 7.12502
lthumb 13.0519 59.4316
rfemur -85.4776 -9.05441 6.52788
rtibia 36.8843
rfoot -3.37855 -17.9127
rtoes 15.329
lfemur -44.2408 -0.711899 -13.0138
ltibia 27.9909
lfoot 10.3815 -5.69475
ltoes -13.6445
296
root -1.46743 17.5369 -2.55398 73.743 25.9262 19.9533
lowerback 18.6982 2.76631 4.86251
upperback 12.1707 4.71806 11.8976
thorax 2.15101 2.23478 9.40612
lowerneck -15.6621 -9.02678 -0.952264
upperneck 7.46905 -11.1902 -7.68273
head 4.36053 -6.05075 -3.11977
rclavicle 3.81667e-014 -2.8625e-014
rhumerus 47.8544 3.85103 -27.8172
rradius 29.6802
rwrist -5.80528
rhand -34.4239 13.3973
rfingers 7.12502
rthumb -7.58878 -16.4466
lclavicle 3.81667e-014 -2.8625e-014
lhumerus -16.5884 -29.7779 97.057
lradius 81.7279
lwrist 13.3995
lhand -12.9421 30.2132
lfingers 7.12502
lthumb 13.1491 59.7786
rfemur -90.1792 -10.6063 6.45636
rtibia 37.8003
rfoot -3.26353 -18.6367
rtoes 17.9302
lfemur -49.1753 -0.228918 -13.2293
ltibia 29.6426
lfoot 10.5542 -6.07522
ltoes -13.8236
297
root -1.50876 17.4336 -2.57229 76.7483 25.9683 21.2128
lowerback 16.0368 2.64613 4.54466
upperback 11.7453 4.28852 11.9924
thorax 3.09019 2.00564 9.87513
lowerneck -15.3649 -9.09028 -1.07951
upperneck 6.95214 -11.3181 -7.48593
head 4.16616 -6.09631 -3.01415
rclavicle -9.54166e-015 -8.11041e-014
rhumerus 48.5362 3.23374 -27.1277
rradius 29.4681
rwrist -4.25234
rhand -35.1986 13.8685
rfingers 7.12502
rthumb -8.33647 -15.947
lclavicle -9.54166e-015 -8.11041e-014
lhumerus -16.6404 -30.0065 97.1115
lradius 82.0565
lwrist 13.5575
lhand -12.8491 30.3321
lfingers 7.12502
lthumb 13.2387 59.8917
rfemur -93.0927 -12.006 5.90491
rtibia 38.7147
rfoot -3.58653 -19.4878
rtoes 21.8276
lfemur -52.2783 -0.30489 -13.6812
ltibia 31.2079
lfoot 10.5097 -6.09432
ltoes -13.2146
298
root -1.52778 17.3642 -2.55896 78.2204 25.9014 22.0915
lowerback 15.1471 2.55591 4.48825
upperback 11.5703 4.09683 12.0833
thorax 3.38565 1.90576 10.0754
lowerneck -14.9042 -9.18266 -1.1545
upperneck 6.34809 -11.5056 -7.30802
head 3.91374 -6.16756 -2.91329
rclavicle -3.49861e-014 -1.59028e-015
rhumerus 49.0802 2.50139 -26.8005
rradius 29.1877
rwrist -2.28365
rhand -36.146 14.329
rfingers 7.12502
rthumb -9.25065 -15.4481
lclavicle -3.49861e-014 -1.59028e-015
lhumerus -16.7182 -30.3164 97.2738
lradius 82.3175
lwrist 13.7763
lhand -12.6902 30.4516
lfingers 7.12502
lthumb 13.3918 60.0012
rfemur -94.5112 -12.8327 5.33922
rtibia 39.661
rfoot -4.05664 -19.988
rtoes 24.0557
lfemur -53.3862 -0.566748 -13.9619
ltibia 32.2115
lfoot 10.3737 -5.81333
ltoes -12.5896
